<svg xmlns="http://www.w3.org/2000/svg" viewBox="0 0 100 100">
  <!-- Slim, tall profile cat in ink. Facing left, sitting upright, one pointed ear. -->
  <path d="
    M 32 40
    C 32 35  33 31  36 28
    L 38 27
    L 40 17
    L 46 27
    L 49 27
    C 55 28  60 32  63 38
    C 67 46  69 56  68 66
    C 67 74  65 80  62 83
    L 62 86
    L 36 86
    L 36 84
    C 32 80  30 72  30 62
    C 30 54  30 46  32 40 Z"
    fill="#1C1A17"/>
  <!-- eye notch for character (paper dot) -->
  <circle cx="39" cy="34" r="1.2" fill="#FAF8F3"/>
  <!-- horizon line across the full width -->
  <line x1="6" y1="86" x2="94" y2="86" stroke="#1C1A17" stroke-width="1.6" stroke-linecap="round"/>
  <!-- long, graceful tail curling out to the right -->
  <path d="M 62 86 C 78 90 92 84 88 76 C 85 70 80 71 77 76"
        fill="none" stroke="#1C1A17" stroke-width="2.2" stroke-linecap="round"/>
</svg>